<?xml version="1.0" standalone="no"?>
<!DOCTYPE svg PUBLIC "-//W3C//DTD SVG 20010904//EN"
 "http://www.w3.org/TR/2001/REC-SVG-20010904/DTD/svg10.dtd">
<svg version="1.0" xmlns="http://www.w3.org/2000/svg"
 width="700.000000pt" height="700.000000pt" viewBox="0 0 700.000000 700.000000"
 preserveAspectRatio="xMidYMid meet">
<metadata>
Created by potrace 1.11, written by Peter Selinger 2001-2013
</metadata>
<g transform="translate(0.000000,700.000000) scale(0.100000,-0.100000)"
fill="#000000" stroke="none">
<path d="M230 6765 c0 -8 1511 -6539 1513 -6541 1 -1 386 1443 856 3209 470
1767 862 3240 872 3275 l18 62 -1630 0 c-896 0 -1629 -2 -1629 -5z"/>
<path d="M3502 6758 c3 -7 398 -1481 879 -3275 481 -1794 875 -3260 876 -3259
3 3 1514 6476 1520 6514 l6 32 -1643 0 c-1309 0 -1641 -3 -1638 -12z"/>
</g>
</svg>
